<mxfile host="Electron" modified="2024-06-17T19:39:10.467Z" agent="Mozilla/5.0 (Macintosh; Intel Mac OS X 10_15_7) AppleWebKit/537.36 (KHTML, like Gecko) draw.io/23.0.2 Chrome/120.0.6099.109 Electron/28.1.0 Safari/537.36" etag="IzmHZdr1sZF_WZlOQOBa" version="23.0.2" type="device">
  <diagram id="-NZCvJOlYVIJsy2IGn_z" name="Page-1">
    <mxGraphModel dx="1114" dy="678" grid="1" gridSize="10" guides="1" tooltips="1" connect="1" arrows="1" fold="1" page="1" pageScale="1" pageWidth="850" pageHeight="1100" math="0" shadow="0">
      <root>
        <mxCell id="0" />
        <mxCell id="1" parent="0" />
        <mxCell id="33" value="" style="rounded=1;whiteSpace=wrap;html=1;" parent="1" vertex="1">
          <mxGeometry x="230" y="160" width="870" height="380" as="geometry" />
        </mxCell>
        <mxCell id="34" value="" style="rounded=1;whiteSpace=wrap;html=1;dashed=1;" parent="1" vertex="1">
          <mxGeometry x="790" y="210" width="300" height="230" as="geometry" />
        </mxCell>
        <mxCell id="35" value="GET /api/health" style="endArrow=classic;html=1;rounded=0;fillColor=#d5e8d4;strokeColor=#82b366;strokeWidth=3;" parent="1" edge="1">
          <mxGeometry width="50" height="50" relative="1" as="geometry">
            <mxPoint x="160" y="290" as="sourcePoint" />
            <mxPoint x="410" y="290" as="targetPoint" />
          </mxGeometry>
        </mxCell>
        <mxCell id="8ixYzzpMh5PxH4ddAJ65-78" style="edgeStyle=orthogonalEdgeStyle;rounded=0;hachureGap=4;orthogonalLoop=1;jettySize=auto;html=1;exitX=1;exitY=0.25;exitDx=0;exitDy=0;entryX=0;entryY=0.5;entryDx=0;entryDy=0;fontFamily=Architects Daughter;fontSource=https%3A%2F%2Ffonts.googleapis.com%2Fcss%3Ffamily%3DArchitects%2BDaughter;fontSize=16;fillColor=#d5e8d4;strokeColor=#82b366;strokeWidth=3;" parent="1" source="41" target="8ixYzzpMh5PxH4ddAJ65-73" edge="1">
          <mxGeometry relative="1" as="geometry">
            <Array as="points">
              <mxPoint x="560" y="332" />
              <mxPoint x="560" y="220" />
            </Array>
          </mxGeometry>
        </mxCell>
        <mxCell id="nfL7MnceBDzXh0ajZmC--78" style="edgeStyle=orthogonalEdgeStyle;rounded=0;hachureGap=4;orthogonalLoop=1;jettySize=auto;html=1;entryX=0;entryY=0.5;entryDx=0;entryDy=0;fontFamily=Architects Daughter;fontSource=https%3A%2F%2Ffonts.googleapis.com%2Fcss%3Ffamily%3DArchitects%2BDaughter;fontSize=16;fillColor=#e1d5e7;strokeColor=#9673a6;strokeWidth=3;exitX=1.001;exitY=0.448;exitDx=0;exitDy=0;exitPerimeter=0;" edge="1" parent="1" source="41" target="8ixYzzpMh5PxH4ddAJ65-84">
          <mxGeometry relative="1" as="geometry">
            <Array as="points">
              <mxPoint x="530" y="383" />
            </Array>
          </mxGeometry>
        </mxCell>
        <mxCell id="nfL7MnceBDzXh0ajZmC--80" style="edgeStyle=orthogonalEdgeStyle;rounded=0;hachureGap=4;orthogonalLoop=1;jettySize=auto;html=1;exitX=1.002;exitY=0.855;exitDx=0;exitDy=0;entryX=0;entryY=0.25;entryDx=0;entryDy=0;fontFamily=Architects Daughter;fontSource=https%3A%2F%2Ffonts.googleapis.com%2Fcss%3Ffamily%3DArchitects%2BDaughter;fontSize=16;strokeWidth=3;fillColor=#dae8fc;strokeColor=#6c8ebf;exitPerimeter=0;" edge="1" parent="1" target="8ixYzzpMh5PxH4ddAJ65-80">
          <mxGeometry relative="1" as="geometry">
            <mxPoint x="530" y="457.75" as="sourcePoint" />
            <mxPoint x="593.8225" y="456.8125" as="targetPoint" />
            <Array as="points">
              <mxPoint x="594" y="458" />
            </Array>
          </mxGeometry>
        </mxCell>
        <mxCell id="nfL7MnceBDzXh0ajZmC--83" style="edgeStyle=orthogonalEdgeStyle;rounded=0;hachureGap=4;orthogonalLoop=1;jettySize=auto;html=1;entryX=0;entryY=0.75;entryDx=0;entryDy=0;fontFamily=Architects Daughter;fontSource=https%3A%2F%2Ffonts.googleapis.com%2Fcss%3Ffamily%3DArchitects%2BDaughter;fontSize=16;fillColor=#f8cecc;strokeColor=#b85450;strokeWidth=3;exitX=0.998;exitY=0.855;exitDx=0;exitDy=0;exitPerimeter=0;" edge="1" parent="1" source="41" target="8ixYzzpMh5PxH4ddAJ65-80">
          <mxGeometry relative="1" as="geometry" />
        </mxCell>
        <mxCell id="41" value="API Controllers" style="rounded=1;whiteSpace=wrap;html=1;" parent="1" vertex="1">
          <mxGeometry x="410" y="270" width="120" height="250" as="geometry" />
        </mxCell>
        <mxCell id="42" value="&lt;div&gt;PUT /api/search&lt;/div&gt;" style="endArrow=classic;html=1;rounded=0;fillColor=#e1d5e7;strokeColor=#9673a6;strokeWidth=3;" parent="1" edge="1">
          <mxGeometry x="0.0032" width="50" height="50" relative="1" as="geometry">
            <mxPoint x="160" y="375" as="sourcePoint" />
            <mxPoint x="410" y="375" as="targetPoint" />
            <mxPoint as="offset" />
          </mxGeometry>
        </mxCell>
        <mxCell id="43" value="&lt;div&gt;PUT /api/registerWebhook&lt;/div&gt;" style="endArrow=classic;html=1;rounded=0;fillColor=#dae8fc;strokeColor=#6c8ebf;strokeWidth=3;exitX=1;exitY=0.448;exitDx=0;exitDy=0;exitPerimeter=0;" parent="1" edge="1">
          <mxGeometry width="50" height="50" relative="1" as="geometry">
            <mxPoint x="160" y="320" as="sourcePoint" />
            <mxPoint x="410" y="320" as="targetPoint" />
          </mxGeometry>
        </mxCell>
        <mxCell id="45" value="&lt;u&gt;&lt;b&gt;Provider Backend&lt;/b&gt;&lt;/u&gt;" style="rounded=1;whiteSpace=wrap;html=1;fillColor=#fff2cc;strokeColor=#d6b656;fontColor=#000000;" parent="1" vertex="1">
          <mxGeometry x="40" y="270" width="120" height="250" as="geometry" />
        </mxCell>
        <mxCell id="46" value="" style="endArrow=classic;html=1;rounded=0;fontSize=12;startSize=8;endSize=8;edgeStyle=orthogonalEdgeStyle;strokeWidth=3;fillColor=#dae8fc;strokeColor=#6c8ebf;dashed=1;entryX=1;entryY=0.5;entryDx=0;entryDy=0;exitX=0.5;exitY=1;exitDx=0;exitDy=0;" parent="1" source="8ixYzzpMh5PxH4ddAJ65-80" target="49" edge="1">
          <mxGeometry width="50" height="50" relative="1" as="geometry">
            <mxPoint x="690" y="490" as="sourcePoint" />
            <mxPoint x="10" y="530" as="targetPoint" />
            <Array as="points">
              <mxPoint x="655" y="560" />
              <mxPoint x="210" y="560" />
              <mxPoint x="210" y="540" />
            </Array>
          </mxGeometry>
        </mxCell>
        <mxCell id="47" value="Return Announcement Information" style="edgeLabel;html=1;align=center;verticalAlign=middle;resizable=0;points=[];fontSize=12;" parent="46" vertex="1" connectable="0">
          <mxGeometry x="0.0564" relative="1" as="geometry">
            <mxPoint x="-1" as="offset" />
          </mxGeometry>
        </mxCell>
        <mxCell id="49" value="Webhook API" style="rounded=1;whiteSpace=wrap;html=1;fillColor=#fff2cc;strokeColor=#d6b656;fontColor=#000000;" parent="1" vertex="1">
          <mxGeometry x="40" y="520" width="120" height="40" as="geometry" />
        </mxCell>
        <mxCell id="58" value="&lt;h1 style=&quot;margin-top: 0px;&quot;&gt;Queues&lt;/h1&gt;&lt;p&gt;BullMQ is used to manage transaction related (on chain) jobs.&lt;/p&gt;" style="text;html=1;whiteSpace=wrap;overflow=hidden;rounded=0;fontFamily=Helvetica;fontSize=12;fontColor=default;" parent="1" vertex="1">
          <mxGeometry x="960" y="223" width="140" height="120" as="geometry" />
        </mxCell>
        <mxCell id="59" value="&lt;h1 style=&quot;margin-top: 0px;&quot;&gt;&lt;span style=&quot;background-color: initial;&quot;&gt;API&lt;/span&gt;&lt;/h1&gt;" style="text;html=1;whiteSpace=wrap;overflow=hidden;rounded=0;fontFamily=Helvetica;fontSize=12;fontColor=default;" parent="1" vertex="1">
          <mxGeometry x="270" y="167" width="295" height="40" as="geometry" />
        </mxCell>
        <mxCell id="65" value="&lt;u&gt;&lt;b&gt;Frequency Chain&lt;/b&gt;&lt;/u&gt;" style="shape=cube;whiteSpace=wrap;html=1;boundedLbl=1;backgroundOutline=1;darkOpacity=0.05;darkOpacity2=0.1;rounded=1;strokeColor=#d6b656;align=center;verticalAlign=middle;fontFamily=Helvetica;fontSize=12;fillColor=#fff2cc;fontColor=#000000;" parent="1" vertex="1">
          <mxGeometry x="555" y="30" width="180" height="97" as="geometry" />
        </mxCell>
        <mxCell id="66" style="edgeStyle=orthogonalEdgeStyle;rounded=0;orthogonalLoop=1;jettySize=auto;html=1;fontFamily=Helvetica;fontSize=12;fontColor=default;fillColor=#d5e8d4;strokeColor=#82b366;strokeWidth=3;exitX=0.5;exitY=0;exitDx=0;exitDy=0;entryX=0;entryY=0;entryDx=100;entryDy=97;entryPerimeter=0;" parent="1" source="8ixYzzpMh5PxH4ddAJ65-73" target="65" edge="1">
          <mxGeometry relative="1" as="geometry">
            <Array as="points">
              <mxPoint x="655" y="130" />
              <mxPoint x="655" y="130" />
            </Array>
            <mxPoint x="730" y="100" as="sourcePoint" />
            <mxPoint x="720" y="50" as="targetPoint" />
          </mxGeometry>
        </mxCell>
        <mxCell id="67" value="Watch for Messages" style="edgeLabel;html=1;align=center;verticalAlign=middle;resizable=0;points=[];rounded=1;strokeColor=default;fontFamily=Helvetica;fontSize=12;fontColor=default;fillColor=default;" parent="66" vertex="1" connectable="0">
          <mxGeometry x="-0.0385" y="-2" relative="1" as="geometry">
            <mxPoint x="-2" y="14" as="offset" />
          </mxGeometry>
        </mxCell>
        <mxCell id="8ixYzzpMh5PxH4ddAJ65-72" value="**RPC jobs: can be executed directly by the service.&lt;br&gt;**Extrinsic jobs: must use the queue.&lt;br&gt;**Additional Development RPCs are available in the development.controller" style="text;html=1;whiteSpace=wrap;overflow=hidden;rounded=0;" parent="1" vertex="1">
          <mxGeometry x="270" y="207" width="295" height="80" as="geometry" />
        </mxCell>
        <mxCell id="8ixYzzpMh5PxH4ddAJ65-92" style="edgeStyle=orthogonalEdgeStyle;rounded=0;hachureGap=4;orthogonalLoop=1;jettySize=auto;html=1;exitX=1;exitY=0.5;exitDx=0;exitDy=0;fontFamily=Architects Daughter;fontSource=https%3A%2F%2Ffonts.googleapis.com%2Fcss%3Ffamily%3DArchitects%2BDaughter;fontSize=16;fillColor=#d5e8d4;strokeColor=#82b366;strokeWidth=3;" parent="1" source="8ixYzzpMh5PxH4ddAJ65-73" target="8ixYzzpMh5PxH4ddAJ65-93" edge="1">
          <mxGeometry relative="1" as="geometry">
            <Array as="points">
              <mxPoint x="750" y="220" />
              <mxPoint x="750" y="270" />
            </Array>
          </mxGeometry>
        </mxCell>
        <mxCell id="8ixYzzpMh5PxH4ddAJ65-73" value="Scanner" style="shape=parallelogram;perimeter=parallelogramPerimeter;whiteSpace=wrap;html=1;fixedSize=1;rounded=1;strokeColor=#82b366;align=center;verticalAlign=middle;fontFamily=Helvetica;fontSize=12;fillColor=#d5e8d4;fontColor=#000000;" parent="1" vertex="1">
          <mxGeometry x="580" y="190" width="150" height="60" as="geometry" />
        </mxCell>
        <mxCell id="8ixYzzpMh5PxH4ddAJ65-80" value="Pubsub Service" style="shape=parallelogram;perimeter=parallelogramPerimeter;whiteSpace=wrap;html=1;fixedSize=1;rounded=1;strokeColor=#6c8ebf;align=center;verticalAlign=middle;fontFamily=Helvetica;fontSize=12;fillColor=#dae8fc;" parent="1" vertex="1">
          <mxGeometry x="580" y="440" width="150" height="60" as="geometry" />
        </mxCell>
        <mxCell id="nfL7MnceBDzXh0ajZmC--79" style="edgeStyle=orthogonalEdgeStyle;rounded=0;hachureGap=4;orthogonalLoop=1;jettySize=auto;html=1;exitX=1;exitY=0.5;exitDx=0;exitDy=0;fontFamily=Architects Daughter;fontSource=https%3A%2F%2Ffonts.googleapis.com%2Fcss%3Ffamily%3DArchitects%2BDaughter;fontSize=16;fillColor=#e1d5e7;strokeColor=#9673a6;strokeWidth=3;" edge="1" parent="1" source="8ixYzzpMh5PxH4ddAJ65-84" target="nfL7MnceBDzXh0ajZmC--77">
          <mxGeometry relative="1" as="geometry" />
        </mxCell>
        <mxCell id="8ixYzzpMh5PxH4ddAJ65-84" value="Search&lt;br&gt;Crawl Range/Filter" style="shape=parallelogram;perimeter=parallelogramPerimeter;whiteSpace=wrap;html=1;fixedSize=1;rounded=1;strokeColor=#9673a6;align=center;verticalAlign=middle;fontFamily=Helvetica;fontSize=12;fillColor=#e1d5e7;strokeWidth=1;" parent="1" vertex="1">
          <mxGeometry x="580" y="353" width="150" height="60" as="geometry" />
        </mxCell>
        <mxCell id="nfL7MnceBDzXh0ajZmC--81" style="edgeStyle=orthogonalEdgeStyle;rounded=0;hachureGap=4;orthogonalLoop=1;jettySize=auto;html=1;entryX=1;entryY=0.75;entryDx=0;entryDy=0;fontFamily=Architects Daughter;fontSource=https%3A%2F%2Ffonts.googleapis.com%2Fcss%3Ffamily%3DArchitects%2BDaughter;fontSize=16;fillColor=#dae8fc;strokeColor=#6c8ebf;strokeWidth=3;" edge="1" parent="1" source="8ixYzzpMh5PxH4ddAJ65-93" target="8ixYzzpMh5PxH4ddAJ65-80">
          <mxGeometry relative="1" as="geometry">
            <Array as="points">
              <mxPoint x="880" y="330" />
              <mxPoint x="980" y="330" />
              <mxPoint x="980" y="482" />
            </Array>
          </mxGeometry>
        </mxCell>
        <mxCell id="nfL7MnceBDzXh0ajZmC--82" value="Announcements" style="edgeLabel;html=1;align=center;verticalAlign=middle;resizable=0;points=[];fontSize=12;fontFamily=Helvetica;fillColor=default;strokeColor=default;rounded=1;" vertex="1" connectable="0" parent="nfL7MnceBDzXh0ajZmC--81">
          <mxGeometry x="0.5478" y="-2" relative="1" as="geometry">
            <mxPoint as="offset" />
          </mxGeometry>
        </mxCell>
        <mxCell id="8ixYzzpMh5PxH4ddAJ65-93" value="&lt;b&gt;IPFS Queue&lt;br&gt;&lt;/b&gt;Processes Messages&lt;br&gt;into Announcements" style="shape=hexagon;whiteSpace=wrap;html=1;fixedSize=1;rounded=1;strokeColor=#666666;align=center;verticalAlign=middle;fontFamily=Helvetica;fontSize=12;fillColor=#f5f5f5;fontColor=#333333;perimeter=hexagonPerimeter2;" parent="1" vertex="1">
          <mxGeometry x="810" y="230" width="140" height="80" as="geometry" />
        </mxCell>
        <mxCell id="nfL7MnceBDzXh0ajZmC--69" value="&lt;div&gt;DELETE /api/clearAllWebHooks&lt;/div&gt;" style="endArrow=classic;html=1;rounded=0;entryX=0;entryY=0.75;entryDx=0;entryDy=0;fillColor=#f8cecc;strokeColor=#b85450;strokeWidth=3;exitX=1;exitY=0.75;exitDx=0;exitDy=0;" edge="1" parent="1">
          <mxGeometry width="50" height="50" relative="1" as="geometry">
            <mxPoint x="160" y="500" as="sourcePoint" />
            <mxPoint x="410" y="500" as="targetPoint" />
          </mxGeometry>
        </mxCell>
        <mxCell id="nfL7MnceBDzXh0ajZmC--70" value="&lt;div&gt;GET /api/getRegisteredWebhooks&lt;/div&gt;" style="endArrow=classic;html=1;rounded=0;entryX=0;entryY=0.75;entryDx=0;entryDy=0;fillColor=#f8cecc;strokeColor=#b85450;strokeWidth=3;exitX=1;exitY=0.75;exitDx=0;exitDy=0;" edge="1" parent="1">
          <mxGeometry width="50" height="50" relative="1" as="geometry">
            <mxPoint x="160" y="480" as="sourcePoint" />
            <mxPoint x="410" y="480" as="targetPoint" />
          </mxGeometry>
        </mxCell>
        <mxCell id="nfL7MnceBDzXh0ajZmC--71" value="&lt;div&gt;GET /api/resetScanner&lt;/div&gt;" style="endArrow=classic;html=1;rounded=0;entryX=0;entryY=0.75;entryDx=0;entryDy=0;fillColor=#d5e8d4;strokeColor=#82b366;strokeWidth=3;exitX=1;exitY=0.75;exitDx=0;exitDy=0;" edge="1" parent="1">
          <mxGeometry width="50" height="50" relative="1" as="geometry">
            <mxPoint x="160" y="450" as="sourcePoint" />
            <mxPoint x="410" y="450" as="targetPoint" />
          </mxGeometry>
        </mxCell>
        <mxCell id="nfL7MnceBDzXh0ajZmC--72" value="&lt;div&gt;GET /api/pauseScanner&lt;/div&gt;" style="endArrow=classic;html=1;rounded=0;entryX=0;entryY=0.75;entryDx=0;entryDy=0;fillColor=#d5e8d4;strokeColor=#82b366;strokeWidth=3;exitX=1;exitY=0.75;exitDx=0;exitDy=0;" edge="1" parent="1">
          <mxGeometry width="50" height="50" relative="1" as="geometry">
            <mxPoint x="160" y="430" as="sourcePoint" />
            <mxPoint x="410" y="430" as="targetPoint" />
          </mxGeometry>
        </mxCell>
        <mxCell id="nfL7MnceBDzXh0ajZmC--73" value="&lt;div&gt;GET /api/startScanner&lt;/div&gt;" style="endArrow=classic;html=1;rounded=0;entryX=0;entryY=0.75;entryDx=0;entryDy=0;fillColor=#d5e8d4;strokeColor=#82b366;strokeWidth=3;exitX=1;exitY=0.75;exitDx=0;exitDy=0;" edge="1" parent="1">
          <mxGeometry width="50" height="50" relative="1" as="geometry">
            <mxPoint x="160" y="410" as="sourcePoint" />
            <mxPoint x="410" y="410" as="targetPoint" />
          </mxGeometry>
        </mxCell>
        <mxCell id="nfL7MnceBDzXh0ajZmC--74" value="&lt;div&gt;PUT /api/setWatchOptions&lt;/div&gt;" style="endArrow=classic;html=1;rounded=0;fillColor=#dae8fc;strokeColor=#6c8ebf;strokeWidth=3;exitX=1;exitY=0.448;exitDx=0;exitDy=0;exitPerimeter=0;" edge="1" parent="1">
          <mxGeometry width="50" height="50" relative="1" as="geometry">
            <mxPoint x="160" y="340" as="sourcePoint" />
            <mxPoint x="410" y="340" as="targetPoint" />
          </mxGeometry>
        </mxCell>
        <mxCell id="nfL7MnceBDzXh0ajZmC--75" value="&lt;u&gt;&lt;b&gt;IPFS&lt;/b&gt;&lt;/u&gt;" style="shape=cube;whiteSpace=wrap;html=1;boundedLbl=1;backgroundOutline=1;darkOpacity=0.05;darkOpacity2=0.1;rounded=1;strokeColor=#d6b656;align=center;verticalAlign=middle;fontFamily=Helvetica;fontSize=12;fillColor=#fff2cc;fontColor=#000000;" vertex="1" parent="1">
          <mxGeometry x="820" y="30" width="180" height="97" as="geometry" />
        </mxCell>
        <mxCell id="nfL7MnceBDzXh0ajZmC--76" style="edgeStyle=orthogonalEdgeStyle;rounded=0;hachureGap=4;orthogonalLoop=1;jettySize=auto;html=1;entryX=0;entryY=0;entryDx=100;entryDy=97;entryPerimeter=0;fontFamily=Architects Daughter;fontSource=https%3A%2F%2Ffonts.googleapis.com%2Fcss%3Ffamily%3DArchitects%2BDaughter;fontSize=16;fillColor=#f5f5f5;strokeColor=#666666;strokeWidth=3;" edge="1" parent="1" source="8ixYzzpMh5PxH4ddAJ65-93" target="nfL7MnceBDzXh0ajZmC--75">
          <mxGeometry relative="1" as="geometry" />
        </mxCell>
        <mxCell id="nfL7MnceBDzXh0ajZmC--84" style="edgeStyle=orthogonalEdgeStyle;rounded=0;hachureGap=4;orthogonalLoop=1;jettySize=auto;html=1;exitX=0.5;exitY=1;exitDx=0;exitDy=0;entryX=1;entryY=0.25;entryDx=0;entryDy=0;fontFamily=Architects Daughter;fontSource=https%3A%2F%2Ffonts.googleapis.com%2Fcss%3Ffamily%3DArchitects%2BDaughter;fontSize=16;fillColor=#e1d5e7;strokeColor=#9673a6;strokeWidth=3;" edge="1" parent="1" source="nfL7MnceBDzXh0ajZmC--77" target="8ixYzzpMh5PxH4ddAJ65-80">
          <mxGeometry relative="1" as="geometry">
            <Array as="points">
              <mxPoint x="880" y="456" />
            </Array>
          </mxGeometry>
        </mxCell>
        <mxCell id="nfL7MnceBDzXh0ajZmC--87" value="Crawl Result" style="edgeLabel;html=1;align=center;verticalAlign=middle;resizable=0;points=[];fontSize=12;fontFamily=Helvetica;fillColor=default;strokeColor=default;rounded=1;" vertex="1" connectable="0" parent="nfL7MnceBDzXh0ajZmC--84">
          <mxGeometry x="0.2793" y="-1" relative="1" as="geometry">
            <mxPoint x="38" as="offset" />
          </mxGeometry>
        </mxCell>
        <mxCell id="nfL7MnceBDzXh0ajZmC--77" value="&lt;b&gt;Crawl Queue&lt;br&gt;&lt;/b&gt;Scans for&lt;br&gt;Specific Items" style="shape=hexagon;whiteSpace=wrap;html=1;fixedSize=1;rounded=1;strokeColor=#666666;align=center;verticalAlign=middle;fontFamily=Helvetica;fontSize=12;fillColor=#f5f5f5;fontColor=#333333;perimeter=hexagonPerimeter2;" vertex="1" parent="1">
          <mxGeometry x="810" y="343" width="140" height="80" as="geometry" />
        </mxCell>
      </root>
    </mxGraphModel>
  </diagram>
</mxfile>
